<svg xmlns="http://www.w3.org/2000/svg" xmlns:xlink="http://www.w3.org/1999/xlink" width="25" height="25" viewBox="0 0 25 25">
  <defs>
    <linearGradient id="linear-gradient" x1="1.123" y1="0.032" x2="-0.043" y2="1.045" gradientUnits="objectBoundingBox">
      <stop offset="0" stop-color="#454545"/>
      <stop offset="1"/>
    </linearGradient>
    <linearGradient id="linear-gradient-2" x1="4.06" y1="-4.719" x2="-12.919" y2="20.171" xlink:href="#linear-gradient"/>
    <linearGradient id="linear-gradient-3" x1="4.515" y1="-5.386" x2="-12.464" y2="19.504" xlink:href="#linear-gradient"/>
    <linearGradient id="linear-gradient-4" x1="5.318" y1="-2.865" x2="-19.283" y2="14.315" xlink:href="#linear-gradient"/>
    <linearGradient id="linear-gradient-5" x1="6.658" y1="-3.8" x2="-17.943" y2="13.379" xlink:href="#linear-gradient"/>
    <linearGradient id="linear-gradient-6" x1="4.844" y1="-3.899" x2="-5.549" y2="6.624" xlink:href="#linear-gradient"/>
    <linearGradient id="linear-gradient-7" x1="8.34" y1="-7.432" x2="-12.848" y2="14.005" xlink:href="#linear-gradient"/>
    <linearGradient id="linear-gradient-8" x1="9.518" y1="-8.624" x2="-20.143" y2="21.386" xlink:href="#linear-gradient"/>
    <linearGradient id="linear-gradient-9" x1="18.579" y1="-17.792" x2="-1.538" y2="2.562" xlink:href="#linear-gradient"/>
    <linearGradient id="linear-gradient-10" x1="3.395" y1="-2.429" x2="-37.392" y2="38.838" xlink:href="#linear-gradient"/>
  </defs>
  <g id="icon-moon" transform="translate(-1205.813 -111.409)">
    <g id="Ellipse_6" data-name="Ellipse 6" transform="translate(1205.813 111.409)" fill="#fff" stroke="#262744" stroke-width="1">
      <circle cx="12.5" cy="12.5" r="12.5" stroke="none"/>
      <circle cx="12.5" cy="12.5" r="12" fill="none"/>
    </g>
    <g id="icon-moon-2" data-name="icon-moon" transform="translate(-3565.539 -1155.871)">
      <path id="Path_110" data-name="Path 110" d="M4790,1284.522a6.8,6.8,0,0,1-5.15-11.754.79.79,0,0,0-.553-1.335,8.356,8.356,0,1,0,6.257,14.425.677.677,0,0,0,.166-.842A.665.665,0,0,0,4790,1284.522Zm-9.8.241a6.869,6.869,0,0,1-1.043-8.75,6.741,6.741,0,0,1,3.154-2.548,8.476,8.476,0,0,0-.39,7.851,8.36,8.36,0,0,0,5.793,4.586A6.833,6.833,0,0,1,4780.207,1284.763Z" transform="translate(0)" fill="url(#linear-gradient)"/>
      <path id="Path_111" data-name="Path 111" d="M4961.891,1314.453a.266.266,0,0,0,.182.321l.463.155a.261.261,0,1,0,.139-.5l-.463-.155A.264.264,0,0,0,4961.891,1314.453Z" transform="translate(-174.558 -40.322)" fill="url(#linear-gradient-2)"/>
      <path id="Path_112" data-name="Path 112" d="M4938.7,1306.971l.463.155a.261.261,0,0,0,.139-.5l-.463-.155a.261.261,0,0,0-.139.5Z" transform="translate(-152.557 -32.976)" fill="url(#linear-gradient-3)"/>
      <path id="Path_113" data-name="Path 113" d="M4956.895,1297.045a.265.265,0,0,0,.32-.182l.155-.463a.261.261,0,0,0-.5-.138l-.155.463A.264.264,0,0,0,4956.895,1297.045Z" transform="translate(-169.682 -23.197)" fill="url(#linear-gradient-4)"/>
      <path id="Path_114" data-name="Path 114" d="M4949.064,1319.631l-.155.463a.261.261,0,0,0,.5.139q.077-.231.155-.463a.261.261,0,0,0-.5-.138Z" transform="translate(-162.336 -45.198)" fill="url(#linear-gradient-5)"/>
      <path id="Path_115" data-name="Path 115" d="M4952.627,1420.578a.8.8,0,1,0,.8.882.279.279,0,0,0,.008-.078.272.272,0,0,0-.008-.077A.812.812,0,0,0,4952.627,1420.578Zm-.283.8a.283.283,0,0,1,.566,0A.283.283,0,0,1,4952.345,1421.382Z" transform="translate(-165.089 -140.412)" fill="url(#linear-gradient-6)"/>
      <path id="Path_116" data-name="Path 116" d="M4914.8,1357.072a.395.395,0,1,0,.395-.395A.394.394,0,0,0,4914.8,1357.072Z" transform="translate(-130.235 -80.254)" fill="url(#linear-gradient-7)"/>
      <path id="Path_117" data-name="Path 117" d="M4970.3,1373.6a.282.282,0,1,0,.282.282A.282.282,0,0,0,4970.3,1373.6Z" transform="translate(-182.218 -96.187)" fill="url(#linear-gradient-8)"/>
      <circle id="Ellipse_5" data-name="Ellipse 5" cx="0.416" cy="0.416" r="0.416" transform="translate(4776.83 1286.455)" fill="url(#linear-gradient-9)"/>
      <path id="Path_118" data-name="Path 118" d="M5021.983,1291.724a.2.2,0,1,0,.205.2A.205.205,0,0,0,5021.983,1291.724Z" transform="translate(-230.947 -19.105)" fill="url(#linear-gradient-10)"/>
    </g>
  </g>
</svg>
