<svg xmlns="http://www.w3.org/2000/svg" width="16.333" height="16.336" viewBox="0 0 16.333 16.336">
  <path class="icons" d="M163.19,403.213h-7.167a4.589,4.589,0,0,0-4.583,4.585v7.165a4.589,4.589,0,0,0,4.583,4.585h7.167a4.59,4.59,0,0,0,4.583-4.585V407.8A4.59,4.59,0,0,0,163.19,403.213Zm3.084,11.75a3.088,3.088,0,0,1-3.084,3.084h-7.167a3.086,3.086,0,0,1-3.084-3.084V407.8a3.086,3.086,0,0,1,3.084-3.084h7.167a3.088,3.088,0,0,1,3.084,3.084Zm-6.667-7.75a4.167,4.167,0,1,0,4.167,4.167A4.171,4.171,0,0,0,159.607,407.213Zm0,6.834a2.666,2.666,0,1,1,2.665-2.667A2.67,2.67,0,0,1,159.607,414.047Zm5.333-7.084a1,1,0,1,1-1-1A1,1,0,0,1,164.94,406.963Z" transform="translate(-151.44 -403.213)" fill="#fff"/>
</svg>
