<svg xmlns="http://www.w3.org/2000/svg" width="16.334" height="16.296" viewBox="0 0 16.334 16.296">
  <path class="icons" d="M121.833,408.632h3.39v10.886h-3.39Zm1.695-5.41a1.963,1.963,0,1,0,1.962,1.962A1.963,1.963,0,0,0,123.528,403.222Zm10.312,5.141a3.562,3.562,0,0,0-3.2,1.757h-.044v-1.489h-3.246v10.886h3.382v-5.385c0-1.418.269-2.794,2.03-2.794,1.735,0,1.76,1.624,1.76,2.888v5.291H137.9v-5.97C137.9,410.616,137.265,408.363,133.839,408.363Z" transform="translate(-121.564 -403.222)" fill="#fff"/>
</svg>
