<svg xmlns="http://www.w3.org/2000/svg" width="16.336" height="13.32" viewBox="0 0 16.336 13.32">
  <path id="twitter" d="M120.667,404.189a7.025,7.025,0,0,1-.935.46,8.765,8.765,0,0,1-.972.306.358.358,0,0,1-.387-.1,3.233,3.233,0,0,0-3.323-.737,3.318,3.318,0,0,0-2.257,3.831c.017.1.008.129-.1.119a10.7,10.7,0,0,1-1.624-.248,9.517,9.517,0,0,1-4.97-3.011,1,1,0,0,0-.219-.231,3.376,3.376,0,0,0,1.041,4.467c-.133-.01-.217-.013-.3-.023a3.252,3.252,0,0,1-1.093-.335c-.083-.044-.127-.062-.123.071a3.318,3.318,0,0,0,1.476,2.695,3.364,3.364,0,0,0,1.2.51,3.54,3.54,0,0,1-1.491.067,3.361,3.361,0,0,0,3.132,2.328,6.847,6.847,0,0,1-4.96,1.4,9.519,9.519,0,0,0,3.844,1.412,9.858,9.858,0,0,0,3.6-.167,8.96,8.96,0,0,0,5.464-3.725,9.714,9.714,0,0,0,1.782-5.887.226.226,0,0,1,.1-.212,5.874,5.874,0,0,0,.758-.66c.1-.1.189-.2.281-.308s.179-.21.264-.321.156-.214.235-.321a7.137,7.137,0,0,1-1.835.458A3.437,3.437,0,0,0,120.667,404.189Z" transform="translate(-104.756 -403.937)" fill="#fff"/>
</svg>
